<?xml version="1.0" encoding="UTF-8"?>
<svg version="1.1" xmlns="http://www.w3.org/2000/svg" width="512" height="512">
<path d="M0 0 C25.25128955 20.37823367 43.77993158 51.0136175 47.34326172 83.62451172 C50.28468107 120.66238398 42.39773943 155.14545385 18.23583984 183.98754883 C16.69266354 185.78518748 15.13301703 187.56564783 13.55859375 189.3359375 C12.49511719 190.53476562 12.49511719 190.53476562 11.41015625 191.7578125 C-10.22192781 214.57646657 -42.73274355 228.73914697 -74.01953125 229.63671875 C-76.24340978 229.65595958 -78.46747226 229.65955314 -80.69140625 229.6484375 C-81.86872314 229.64352295 -83.04604004 229.6386084 -84.2590332 229.63354492 C-93.63106555 229.50825896 -102.36082717 228.62234738 -111.44140625 226.3359375 C-112.71113281 226.01882813 -113.98085938 225.70171875 -115.2890625 225.375 C-133.55552039 220.40762426 -150.00953018 211.48108713 -164.44140625 199.3359375 C-164.96943848 198.89749512 -165.4974707 198.45905273 -166.04150391 198.00732422 C-172.1142867 192.91433859 -177.22829619 187.40077347 -182.12890625 181.1875 C-184.61940663 178.11644379 -187.24510675 175.22496283 -189.94140625 172.3359375 C-194.21130344 167.74904173 -198.19904481 163.00144386 -202.12890625 158.1171875 C-204.64111758 155.09574414 -207.26543082 152.21153672 -209.94140625 149.3359375 C-214.23098385 144.72592111 -218.24551522 139.95810514 -222.1953125 135.05078125 C-224.52971215 132.22920255 -226.96131223 129.53003038 -229.44140625 126.8359375 C-232.71559048 123.27923506 -235.84783058 119.66431939 -238.87890625 115.8984375 C-242.10083726 111.90369764 -245.4479612 108.09039401 -248.94140625 104.3359375 C-253.23095738 99.72589414 -257.24551297 94.95810794 -261.1953125 90.05078125 C-263.52971215 87.22920255 -265.96131223 84.53003038 -268.44140625 81.8359375 C-271.71559048 78.27923506 -274.84783058 74.66431939 -277.87890625 70.8984375 C-291.23980936 54.52432372 -304.78263169 42.0319815 -326.44140625 38.3359375 C-345.05538776 36.58423606 -362.54161692 40.2552132 -377.22265625 52.3515625 C-391.16709869 64.82300046 -397.79745747 79.50705923 -399.71484375 97.96875 C-400.41714596 114.33779387 -394.09076275 130.73805971 -383.19140625 142.8359375 C-371.33344485 155.22270266 -356.06756883 162.22549908 -338.91992188 162.62841797 C-319.99963874 162.78519477 -304.54063016 157.23048089 -290.44140625 144.3359375 C-285.19832809 139.01194764 -280.42475007 133.35011724 -275.75390625 127.5234375 C-267.07936826 116.8635299 -267.07936826 116.8635299 -261.31640625 115.7109375 C-257.6944299 116.49832366 -255.98392586 117.64813106 -253.44140625 120.3359375 C-252.34994737 123.17373059 -252.24798576 124.67278153 -253.09765625 127.5859375 C-254.84333137 131.15848192 -257.26385284 133.94556012 -259.87890625 136.8984375 C-260.4102417 137.5076001 -260.94157715 138.1167627 -261.48901367 138.74438477 C-265.92141127 143.80332071 -270.41154719 148.8122238 -275.00390625 153.7265625 C-276.41829804 155.24068704 -277.82094801 156.76631074 -279.19140625 158.3203125 C-291.97426892 172.25363281 -311.88185985 179.76123588 -330.41015625 180.5859375 C-354.89752431 181.3137541 -374.96692311 174.59348267 -393.44140625 158.3359375 C-408.62625002 143.95029603 -416.08749262 124.2691313 -417.7265625 103.76953125 C-418.3353702 80.5024891 -409.80130798 59.64089258 -393.90234375 42.7109375 C-376.91870139 26.32037471 -356.14780997 19.66621185 -332.9050293 19.86083984 C-324.27906474 20.12151262 -316.61905134 21.56137934 -308.44140625 24.3359375 C-307.38953125 24.6865625 -306.33765625 25.0371875 -305.25390625 25.3984375 C-287.41793833 32.08692547 -274.15663904 46.05167085 -262.58203125 60.69140625 C-260.300908 63.50950924 -257.8991505 66.17086819 -255.44140625 68.8359375 C-252.16722202 72.39263994 -249.03498192 76.00755561 -246.00390625 79.7734375 C-242.78197524 83.76817736 -239.4348513 87.58148099 -235.94140625 91.3359375 C-231.65185512 95.94598086 -227.63729953 100.71376706 -223.6875 105.62109375 C-221.35310035 108.44267245 -218.92150027 111.14184462 -216.44140625 113.8359375 C-213.16722202 117.39263994 -210.03498192 121.00755561 -207.00390625 124.7734375 C-203.78197524 128.76817736 -200.4348513 132.58148099 -196.94140625 136.3359375 C-192.65185512 140.94598086 -188.63729953 145.71376706 -184.6875 150.62109375 C-181.56382161 154.39667024 -178.23794519 157.97158177 -174.91796875 161.57421875 C-172.4534862 164.32246664 -170.12697942 167.14514618 -167.81640625 170.0234375 C-149.93162289 191.97576708 -124.06243128 206.51272117 -95.82324219 210.10449219 C-64.30284355 213.16735995 -35.00055614 204.73703303 -10.3984375 184.8203125 C11.72274385 166.2350135 25.14431365 139.58274399 28.27734375 110.93359375 C30.62088959 80.95573651 21.59095748 51.50470938 2.234375 28.4140625 C-11.65685935 12.31028319 -28.66915885 1.79345516 -48.69140625 -5.0390625 C-49.38717773 -5.27786133 -50.08294922 -5.51666016 -50.79980469 -5.76269531 C-77.69328512 -14.42628272 -108.07703778 -10.48112135 -133.0546875 2.11328125 C-148.19367601 10.34794797 -160.37593546 21.20897188 -171.171875 34.54296875 C-173.31918407 37.18552639 -175.47854315 39.81051286 -177.69140625 42.3984375 C-178.2946875 43.11128906 -178.89796875 43.82414062 -179.51953125 44.55859375 C-181.72203387 46.59546101 -183.58611175 47.45773903 -186.44140625 48.3359375 C-189.58397738 48.18264135 -191.14607984 47.53548237 -193.75390625 45.7734375 C-195.64308156 43.04462872 -196.32754963 40.98743754 -196.125 37.6484375 C-194.5358753 32.27265567 -190.17794862 28.35619149 -186.44140625 24.3359375 C-185.29683863 23.08336657 -184.15230926 21.83076068 -183.0078125 20.578125 C-180.03322729 17.34295095 -177.02048354 14.1465096 -173.98779297 10.96582031 C-172.73086642 9.64102688 -171.49160899 8.2994861 -170.2578125 6.953125 C-152.82639825 -11.56540971 -127.1216154 -22.40779814 -102.44140625 -26.6640625 C-100.90806641 -26.94056641 -100.90806641 -26.94056641 -99.34375 -27.22265625 C-63.38652285 -31.28989015 -28.46911256 -22.32135181 0 0 Z " fill="#000000" transform="translate(464.44140625,155.6640625)"/>
<path d="M0 0 C0.64227539 0.16097168 1.28455078 0.32194336 1.94628906 0.48779297 C23.89704442 6.15795087 42.73323828 17.33474233 59 33 C59.90492188 33.86496094 60.80984375 34.72992188 61.7421875 35.62109375 C67.14049217 40.89229153 72.05384185 46.35187997 76.75390625 52.25 C79.07804431 55.09555338 81.50992644 57.79890326 84 60.5 C87.27418423 64.05670244 90.40642433 67.67161811 93.4375 71.4375 C96.65943101 75.43223986 100.00655495 79.24554349 103.5 83 C107.78955113 87.61004336 111.80410672 92.37782956 115.75390625 97.28515625 C118.0883059 100.10673495 120.51990598 102.80590712 123 105.5 C126.27418423 109.05670244 129.40642433 112.67161811 132.4375 116.4375 C135.65943101 120.43223986 139.00655495 124.24554349 142.5 128 C146.78955113 132.61004336 150.80410672 137.37782956 154.75390625 142.28515625 C157.8782046 146.06148208 161.20392377 149.63748155 164.52734375 153.23828125 C166.98204532 155.97994635 169.27615847 158.80472155 171.5625 161.6875 C182.35580696 174.92528414 196.75676669 184.77037325 214 187 C232.84351524 188.57885298 249.96128521 185.33986465 264.8515625 172.94921875 C278.70954992 160.37624471 285.35237279 145.86429625 287.2734375 127.3671875 C287.97793323 110.94701773 281.61724025 94.56319379 270.6875 82.4375 C259.83670375 71.07017805 244.20679435 63.35755099 228.38671875 62.69921875 C208.98553594 62.45662752 192.39651476 67.46013736 178 81 C172.7645576 86.33284598 167.98418154 91.98477523 163.3125 97.8125 C154.63796201 108.4724076 154.63796201 108.4724076 148.875 109.625 C145.21914871 108.83024972 143.53490928 107.75218722 141 105 C139.9375 102.1875 139.9375 102.1875 140 99 C142.61190959 93.75130549 145.76173257 89.76064927 149.8125 85.5625 C150.88885097 84.42396131 151.96437638 83.28464156 153.0390625 82.14453125 C153.55243164 81.6026416 154.06580078 81.06075195 154.59472656 80.50244141 C156.34626266 78.62979492 158.02279358 76.69997301 159.6875 74.75 C160.78670965 73.49563874 161.8909885 72.24570362 163 71 C163.63679688 70.28457031 164.27359375 69.56914062 164.9296875 68.83203125 C178.7486328 54.12725612 197.88207656 45.64406558 217.96875 44.75 C241.89500878 44.03886076 263.25103982 50.37814625 281 67 C296.59979582 82.69675588 304.71626675 102.76389903 305.3125 124.75 C304.87728931 148.02097151 295.82527863 168.76227078 279 185 C268.08563084 194.56186808 255.23947272 201.06635269 241 204 C239.69869141 204.27263672 239.69869141 204.27263672 238.37109375 204.55078125 C216.02080107 207.52909372 193.9092389 203.53943554 175.2109375 190.55859375 C165.69733319 183.26960815 157.49479949 173.98120911 150.10546875 164.609375 C147.83885648 161.80028966 145.44696966 159.15306971 143 156.5 C139.72581577 152.94329756 136.59357567 149.32838189 133.5625 145.5625 C130.34056899 141.56776014 126.99344505 137.75445651 123.5 134 C119.21044887 129.38995664 115.19589328 124.62217044 111.24609375 119.71484375 C108.9116941 116.89326505 106.48009402 114.19409288 104 111.5 C100.72581577 107.94329756 97.59357567 104.32838189 94.5625 100.5625 C91.34056899 96.56776014 87.99344505 92.75445651 84.5 89 C80.21044887 84.38995664 76.19589328 79.62217044 72.24609375 74.71484375 C69.1235919 70.94068934 65.79897529 67.36710497 62.48046875 63.765625 C59.99535768 60.99482399 57.64555667 58.14948638 55.3125 55.25 C36.87169358 32.57582584 10.07761188 18.22746268 -19 15 C-54.1372413 13.00789649 -82.6196748 22.91307708 -109.08203125 45.80078125 C-129.9648052 65.50981615 -140.89411259 94.18586089 -142.10693359 122.49609375 C-142.52567662 153.61658963 -130.30309421 181.9261476 -109.0625 204.3125 C-96.74668266 216.00630636 -82.28966066 224.53397144 -66.25 229.9375 C-65.41154541 230.21996582 -64.57309082 230.50243164 -63.70922852 230.79345703 C-36.03293386 239.5883984 -5.16617479 236.22135115 20.61328125 223.22265625 C35.75226976 214.98798953 47.93452921 204.12696562 58.73046875 190.79296875 C60.87777782 188.15041111 63.0371369 185.52542464 65.25 182.9375 C65.85328125 182.22464844 66.4565625 181.51179687 67.078125 180.77734375 C69.28062762 178.74047649 71.1447055 177.87819847 74 177 C77.14257113 177.15329615 78.70467359 177.80045513 81.3125 179.5625 C83.20167531 182.29130878 83.88614338 184.34849996 83.68359375 187.6875 C82.09446905 193.06328183 77.73654237 196.97974601 74 201 C72.85543238 202.25257093 71.71090301 203.50517682 70.56640625 204.7578125 C67.59182104 207.99298655 64.57907729 211.1894279 61.54638672 214.37011719 C60.28946017 215.69491062 59.05020274 217.0364514 57.81640625 218.3828125 C37.52657902 239.9380268 5.51117376 252.29480794 -23.68359375 253.27734375 C-61.10659217 254.02469279 -93.53113348 242.94281838 -121 217 C-122.21816406 215.89591797 -122.21816406 215.89591797 -123.4609375 214.76953125 C-146.24469872 193.31542171 -158.59115247 160.86256621 -160 130 C-160.04125 129.23042969 -160.0825 128.46085938 -160.125 127.66796875 C-161.03456332 94.29836454 -148.11287634 61.5200726 -125.5234375 37.2109375 C-107.92672034 18.77804134 -86.7474948 6.29338122 -62 0 C-61.32888184 -0.17644043 -60.65776367 -0.35288086 -59.96630859 -0.53466797 C-40.88483029 -5.3443636 -19.01654381 -4.84235703 0 0 Z " fill="#000000" transform="translate(160,131)"/>
</svg>
